PathFileType	3	(X/Y/Z)	C:\Users\koon_\Desktop\
DataRate	CameraRate	NumFrames	NumMarkers	Units	OrigDataRate	OrigDataStartFrame	OrigNumFrames
100.0	100.0	5	27	mm	100.0	3961	4526	
Frame#	Time	GM:LFHD			GM:RFHD			GM:LBHD			GM:RBHD			GM:C7			GM:T10			GM:CLAV			GM:STRN			GM:RBAK			GM:LSHO			GM:LUPA			GM:LELB			GM:LFRA			GM:LWRA			GM:LWRB			GM:LFIN			GM:RSHO			GM:RUPA			GM:RELB			GM:RFRA			GM:RWRA			GM:RWRB			GM:RFIN			GM:LASI			GM:RASI			GM:LPSI			GM:RPSI			
		X1	Y1	Z1	X2	Y2	Z2	X3	Y3	Z3	X4	Y4	Z4	X5	Y5	Z5	X6	Y6	Z6	X7	Y7	Z7	X8	Y8	Z8	X9	Y9	Z9	X10	Y10	Z10	X11	Y11	Z11	X12	Y12	Z12	X13	Y13	Z13	X14	Y14	Z14	X15	Y15	Z15	X16	Y16	Z16	X17	Y17	Z17	X18	Y18	Z18	X19	Y19	Z19	X20	Y20	Z20	X21	Y21	Z21	X22	Y22	Z22	X23	Y23	Z23	X24	Y24	Z24	X25	Y25	Z25	X26	Y26	Z26	X27	Y27	Z27	
3961	39.6	30.021627	1594.6434	-60.791954	-123.33787	1577.4501	-71.556862	39.408218	1598.1539	-193.9343	-123.38197	1580.6816	-187.6772	-27.212076	1423.3491	-268.83563	-23.143026	1215.8223	-302.44699	-19.383797	1370.1321	-110.43571	-15.192536	1226.8149	-53.355911	-110.67661	1304.0757	-314.16803	137.81644	1400.1211	-216.36525	230.19429	1333.1865	-211.16548	347.24692	1162.3492	-199.70258	426.04758	1185.5414	-73.134346	478.49442	1176.2057	-21.544355	499.71964	1118.3622	-48.429607	550.60181	1139.5712	35.190823	-205.98763	1401.4086	-189.08144	-265.3309	1167.1476	-194.66983	-285.84903	1082.9773	-244.07887	-267.95737	1029.3811	-168.73264	-259.99371	901.63171	-133.67114	-277.4494	878.04749	-187.88643	-280.5947	816.15289	-118.24071	125.90963	907.64105	-87.52195	-166.14166	908.44885	-90.944717	59.41724	945.18329	-298.33826	-101.02282	930.00446	-300.45816
3962	39.61	30.082371	1595.5746	-61.643166	-123.33078	1577.9938	-72.824516	39.813507	1598.293	-194.73152	-122.98412	1580.5128	-188.83092	-26.288555	1423.2877	-268.74011	-22.589884	1215.9556	-302.41357	-18.906633	1369.9833	-110.15103	-15.154394	1226.6337	-53.156891	-109.93448	1304.2631	-314.18683	139.54686	1398.8883	-214.70204	229.89174	1328.0809	-209.64842	340.62222	1152.7876	-202.27931	418.90997	1166.8193	-73.900833	470.74185	1153.0221	-22.435228	488.86005	1094.6636	-51.11113	541.01031	1110.9525	32.393017	-205.48653	1401.5834	-189.23273	-264.92334	1167.2517	-194.72816	-285.71118	1083.0585	-244.25096	-267.52283	1029.5811	-168.6685	-259.60388	901.80103	-133.41634	-277.10519	878.22217	-187.56419	-280.37881	816.43311	-117.88682	126.14597	907.39288	-87.59671	-166.06284	908.53461	-91.281593	59.726795	945.19373	-298.42081	-100.77499	930.0824	-300.6532
3963	39.62	30.156961	1596.451	-62.449043	-123.1041	1578.5172	-73.866196	40.293587	1598.3733	-195.6059	-122.43938	1580.3505	-189.89984	-25.33824	1423.1312	-268.66867	-21.884867	1216.0428	-302.32465	-18.515957	1369.7958	-109.93449	-15.148128	1226.504	-52.958492	-109.11156	1304.3733	-314.22018	141.20564	1397.7377	-213.17014	229.4166	1323.4813	-208.51175	334.04333	1144.0664	-204.70039	411.33878	1148.8319	-74.860214	462.09772	1130.7094	-23.621479	477.5108	1072.4478	-54.584137	529.97491	1083.1621	29.352081	-204.9312	1401.7352	-189.45383	-264.53259	1167.413	-194.88469	-285.09653	1083.2003	-244.40565	-267.11887	1029.8655	-168.70483	-259.20761	902.08942	-133.21552	-276.68268	878.44702	-187.40305	-280.07016	816.77429	-117.68116	126.24198	907.13715	-87.592262	-165.98878	908.61841	-91.624573	60.054424	945.26508	-298.3913	-100.44574	930.19073	-300.94754
3964	39.63	30.468906	1597.2462	-63.297459	-122.85986	1579.1208	-75.022865	40.934418	1598.3591	-196.41986	-121.78455	1580.2216	-191.12305	-24.44486	1422.9496	-268.66678	-21.183691	1216.0453	-302.11664	-18.108044	1369.6248	-109.72895	-15.160864	1226.3278	-52.745586	-108.24877	1304.5	-314.35254	142.71872	1396.7777	-211.83936	228.80045	1319.1989	-207.52765	327.62988	1135.9788	-206.95226	403.27985	1131.7079	-76.218346	452.78464	1109.4934	-25.265278	465.8349	1051.745	-58.737816	517.65332	1056.6014	26.086021	-204.36746	1401.907	-189.64821	-264.04788	1167.5959	-195.0507	-284.49673	1083.3503	-244.54698	-267.02216	1030.3389	-168.44826	-258.93936	902.3902	-133.08397	-276.25934	878.6842	-187.2218	-279.74252	817.13275	-117.47295	126.30789	906.96942	-87.570976	-165.99979	908.65759	-92.06311	60.441856	945.31647	-298.37531	-100.06685	930.26947	-301.13708
3965	39.64	30.821609	1597.9637	-64.021614	-122.46497	1579.7155	-76.068977	41.648106	1598.3165	-197.08009	-121.11137	1580.0793	-192.09909	-23.608133	1422.7739	-268.68723	-20.38125	1216.1431	-302.14359	-17.599571	1369.486	-109.54943	-15.192398	1226.2166	-52.576813	-107.5035	1304.6046	-314.43698	144.21257	1395.9773	-210.56526	228.31697	1315.0911	-206.84413	320.86523	1127.9728	-209.03003	394.97925	1115.442	-78.117332	442.7204	1089.1499	-27.736012	454.56738	1032.8113	-63.950813	504.37534	1031.5658	22.323074	-203.77415	1402.0918	-189.83911	-263.58084	1167.7755	-195.21745	-283.94183	1083.5443	-244.7368	-266.49374	1030.5836	-168.45538	-258.59155	902.71271	-133.03499	-275.80048	878.90588	-187.14284	-279.39261	817.44244	-117.23915	126.36085	906.85394	-87.49733	-165.93855	908.7262	-92.334152	60.803593	945.39233	-298.35406	-99.728287	930.33459	-301.41602
